HIERARCHY
ROOT Hips
{
	OFFSET 0.000000 0.000000 0.000000
	CHANNELS 6 Xposition Yposition Zposition Xrotation Yrotation Zrotation
	JOINT LeftUpLeg_virtual
	{
		OFFSET 0.000000 0.000000 0.000000
		CHANNELS 3 Xrotation Yrotation Zrotation
		JOINT LeftUpLeg
		{
			OFFSET 10.205400 -3.823500 0.155100
			CHANNELS 3 Xrotation Yrotation Zrotation
			JOINT LeftLeg
			{
				OFFSET 0.708757 -12.982077 0.567790
				CHANNELS 3 Xrotation Yrotation Zrotation
				JOINT LeftFoot
				{
					OFFSET -0.708756 -10.717838 -2.184338
					CHANNELS 3 Xrotation Yrotation Zrotation
					JOINT LeftToeBase
					{
						OFFSET 0.108149 -7.191104 7.560241
						CHANNELS 3 Xrotation Yrotation Zrotation
						JOINT LeftToe_End
						{
							OFFSET 0.070230 0.081724 4.490308
							CHANNELS 3 Xrotation Yrotation Zrotation
							End Site
							{
								OFFSET 0 0 0
							}
						}
					}
				}
			}
		}
	}
	JOINT RightUpLeg_virtual
	{
		OFFSET 0.000000 0.000000 0.000000
		CHANNELS 3 Xrotation Yrotation Zrotation
		JOINT RightUpLeg
		{
			OFFSET -10.205400 -3.823500 0.005500
			CHANNELS 3 Xrotation Yrotation Zrotation
			JOINT RightLeg
			{
				OFFSET -0.708756 -12.982134 0.610632
				CHANNELS 3 Xrotation Yrotation Zrotation
				JOINT RightFoot
				{
					OFFSET 0.708754 -10.717769 -1.945823
					CHANNELS 3 Xrotation Yrotation Zrotation
					JOINT RightToeBase
					{
						OFFSET -0.108140 -7.191069 7.372968
						CHANNELS 3 Xrotation Yrotation Zrotation
						JOINT RightToe_End
						{
							OFFSET -0.070227 0.081735 4.479403
							CHANNELS 3 Xrotation Yrotation Zrotation
							End Site
							{
								OFFSET 0 0 0
							}
						}
					}
				}
			}
		}
	}
	JOINT Spine_virtual
	{
		OFFSET 0.000000 0.000000 0.000000
		CHANNELS 3 Xrotation Yrotation Zrotation
		JOINT Spine
		{
			OFFSET 0.000000 6.876099 0.125700
			CHANNELS 3 Xrotation Yrotation Zrotation
			JOINT Spine1
			{
				OFFSET 0.000000 5.730043 0.104720
				CHANNELS 3 Xrotation Yrotation Zrotation
				JOINT Spine1_split
				{
					OFFSET 0.000000 5.730043 0.104720
					CHANNELS 3 Xrotation Yrotation Zrotation
					JOINT Spine2
					{
						OFFSET 0.000000 5.730043 0.104720
						CHANNELS 3 Xrotation Yrotation Zrotation
						JOINT Neck_virtual
						{
							OFFSET 0.000000 0.000000 0.000000
							CHANNELS 3 Xrotation Yrotation Zrotation
							JOINT Neck
							{
								OFFSET 0.000000 10.314075 0.188496
								CHANNELS 3 Xrotation Yrotation Zrotation
								JOINT Head
								{
									OFFSET 0.000000 7.643700 -2.377400
									CHANNELS 3 Xrotation Yrotation Zrotation
									JOINT HeadTop_End
									{
										OFFSET 0.000000 43.788605 -13.619600
										CHANNELS 3 Xrotation Yrotation Zrotation
										End Site
										{
											OFFSET 0 0 0
										}
									}
								}
							}
						}
						JOINT LeftShoulder_virtual
						{
							OFFSET 0.000000 0.000000 0.000000
							CHANNELS 3 Xrotation Yrotation Zrotation
							JOINT LeftShoulder
							{
								OFFSET 2.196100 4.412489 0.087492
								CHANNELS 3 Xrotation Yrotation Zrotation
								JOINT LeftShoulder_split
								{
									OFFSET 2.196100 4.412489 0.087492
									CHANNELS 3 Xrotation Yrotation Zrotation
									JOINT LeftArm
									{
										OFFSET 8.771219 -2.981674 -0.026999
										CHANNELS 3 Xrotation Yrotation Zrotation
										JOINT LeftForeArm
										{
											OFFSET 8.512804 0.000000 -0.000000
											CHANNELS 3 Xrotation Yrotation Zrotation
											JOINT LeftHand
											{
												OFFSET 18.484802 0.000000 -0.000000
												CHANNELS 3 Xrotation Yrotation Zrotation
												End Site
												{
													OFFSET 0 0 0
												}
											}
										}
									}
								}
							}
						}
						JOINT RightShoulder_virtual
						{
							OFFSET 0.000000 0.000000 0.000000
							CHANNELS 3 Xrotation Yrotation Zrotation
							JOINT RightShoulder
							{
								OFFSET -2.196100 4.412496 0.070690
								CHANNELS 3 Xrotation Yrotation Zrotation
								JOINT RightShoulder_split
								{
									OFFSET -2.196100 4.412496 0.070690
									CHANNELS 3 Xrotation Yrotation Zrotation
									JOINT RightArm
									{
										OFFSET -8.771282 -2.981682 -0.094208
										CHANNELS 3 Xrotation Yrotation Zrotation
										JOINT RightForeArm
										{
											OFFSET -8.494598 0.000000 0.000000
											CHANNELS 3 Xrotation Yrotation Zrotation
											JOINT RightHand
											{
												OFFSET -18.483803 0.000000 0.000001
												CHANNELS 3 Xrotation Yrotation Zrotation
												End Site
												{
													OFFSET 0 0 0
												}
											}
										}
									}
								}
							}
						}
					}
				}
			}
		}
	}
}
MOTION
Frames: 10
Frame Time: 0.03333333
0.920693 27.256107 -1.048076 0.000000 0.000000 0.000000 -5.066858 -42.290127 0.364327 -38.279877 0.283661 24.724569 64.806051 -10.566831 3.835733 -23.707059 -5.137198 -21.298994 -1.594224 0.000008 0.000003 0.000000 0.000000 0.000000 -5.066858 -42.290127 0.364327 -13.538521 -9.958126 -37.977071 67.040950 -0.359894 -6.535123 -40.067686 -15.839081 29.589240 -1.421664 -0.000021 -0.000002 0.000000 0.000000 0.000000 -5.066858 -42.290127 0.364327 9.463566 6.951571 -1.709076 2.187715 0.989895 -0.914785 0.000000 0.000000 0.000000 0.000000 0.000000 0.000000 2.202829 0.982770 -0.893560 0.084650 13.220559 4.538682 8.920920 20.138138 -4.130234 0.000000 0.000000 0.000000 2.202829 0.982770 -0.893560 1.117174 3.546360 -8.633268 0.000000 0.000000 0.000000 -53.487027 4.935509 -51.503004 -179.999978 -73.641966 -179.999964 0.000000 0.000000 0.000000 2.202829 0.982770 -0.893560 3.036133 13.027208 -5.371451 0.000000 0.000000 0.000000 -48.713739 27.172842 83.457091 179.999950 74.011711 -179.999991 0.000000 0.000000 0.000000 
0.920186 27.278908 -1.027280 0.000000 0.000000 0.000000 -4.921233 -42.301014 0.275467 -38.364100 0.230092 25.163916 64.813243 -10.494761 3.478542 -23.772549 -5.398812 -21.180941 -1.594225 0.000007 0.000004 0.000000 0.000000 0.000000 -4.921233 -42.301014 0.275467 -13.750874 -10.327897 -38.004798 66.717028 0.035470 -6.386594 -39.928268 -15.634993 29.196887 -1.421664 -0.000022 -0.000003 0.000000 0.000000 0.000000 -4.921233 -42.301014 0.275467 9.420890 7.015057 -1.747491 2.160457 1.014522 -0.917778 0.000000 0.000000 0.000000 0.000000 0.000000 0.000000 2.175230 1.007274 -0.896827 -0.002262 13.274984 4.469519 8.607456 20.275411 -3.937012 0.000000 0.000000 0.000000 2.175230 1.007274 -0.896827 1.001839 3.254862 -7.755130 0.000000 0.000000 0.000000 -53.008958 4.373922 -50.549305 179.999991 -73.314390 179.999964 0.000000 0.000000 0.000000 2.175230 1.007274 -0.896827 2.949128 12.677395 -5.252472 0.000000 0.000000 0.000000 -49.612698 28.281030 83.025874 179.999923 74.211344 -179.999937 0.000000 0.000000 0.000000 
0.917011 27.320087 -0.983245 0.000000 0.000000 0.000000 -4.748630 -42.503601 0.231881 -38.309493 0.425811 25.624993 64.748240 -10.993942 3.116705 -23.865062 -5.193333 -20.745125 -1.594223 0.000010 0.000005 0.000000 0.000000 0.000000 -4.748630 -42.503601 0.231881 -13.865349 -10.310819 -38.050574 66.322380 0.741164 -5.903492 -39.730865 -15.620059 28.486446 -1.421660 -0.000020 -0.000001 0.000000 0.000000 0.000000 -4.748630 -42.503601 0.231881 9.340045 6.982851 -1.817384 2.116463 1.001623 -0.938756 0.000000 0.000000 0.000000 0.000000 0.000000 0.000000 2.131453 0.993924 -0.918455 -0.160921 13.383821 4.389432 7.954199 20.680836 -3.679498 0.000000 0.000000 0.000000 2.131453 0.993924 -0.918455 0.882097 2.965722 -6.781234 0.000000 0.000000 0.000000 -52.480325 4.371694 -50.014743 -179.999978 -72.505668 -179.999991 0.000000 0.000000 0.000000 2.131453 0.993924 -0.918455 2.865115 12.349324 -5.101055 0.000000 0.000000 0.000000 -50.475180 29.672893 82.603857 -179.999991 74.347798 179.999978 0.000000 0.000000 0.000000 
0.917300 27.390400 -0.907843 0.000000 0.000000 0.000000 -4.532267 -43.016081 0.264401 -37.999232 1.050551 26.151280 64.538526 -11.825534 2.743417 -24.088931 -4.635070 -20.053560 -1.594225 0.000009 0.000002 0.000000 0.000000 0.000000 -4.532267 -43.016081 0.264401 -14.118945 -9.949328 -38.180525 65.823831 1.661523 -5.294400 -39.355516 -15.606620 27.624466 -1.421660 -0.000020 -0.000001 0.000000 0.000000 0.000000 -4.532267 -43.016081 0.264401 9.209528 6.894350 -1.937924 2.049152 0.967110 -0.982519 0.000000 0.000000 0.000000 0.000000 0.000000 0.000000 2.064602 0.958718 -0.963081 -0.397991 13.551855 4.310263 6.833766 21.403047 -3.318829 0.000000 0.000000 0.000000 2.064602 0.958718 -0.963081 0.760004 2.691018 -5.709873 0.000000 0.000000 0.000000 -51.890983 4.777280 -49.666762 179.999978 -71.344891 179.999978 0.000000 0.000000 0.000000 2.064602 0.958718 -0.963081 2.789654 12.065802 -4.922076 0.000000 0.000000 0.000000 -51.267984 31.359068 82.088137 179.999909 74.448823 -179.999909 0.000000 0.000000 0.000000 
0.926933 27.490677 -0.795784 0.000000 0.000000 0.000000 -4.275866 -44.004388 0.361223 -37.271144 2.103571 26.805323 64.159143 -12.798837 2.277221 -24.569015 -3.780423 -19.189898 -1.594221 0.000011 0.000003 0.000000 0.000000 0.000000 -4.275866 -44.004388 0.361223 -14.754725 -9.207685 -38.410436 65.271904 2.606003 -4.754246 -38.695074 -15.340185 26.813345 -1.421665 -0.000020 -0.000003 0.000000 0.000000 0.000000 -4.275866 -44.004388 0.361223 9.024975 6.810197 -2.106135 1.956324 0.934490 -1.039520 0.000000 0.000000 0.000000 0.000000 0.000000 0.000000 1.971917 0.925417 -1.021210 -0.684144 13.764210 4.208534 5.252511 22.328102 -2.839951 0.000000 0.000000 0.000000 1.971917 0.925417 -1.021210 0.637441 2.468913 -4.580143 0.000000 0.000000 0.000000 -51.272939 5.449276 -49.266940 -179.999991 -69.923235 -179.999978 0.000000 0.000000 0.000000 1.971917 0.925417 -1.021210 2.719021 11.806957 -4.709318 0.000000 0.000000 0.000000 -52.079475 33.374821 81.488808 179.999991 74.627480 179.999964 0.000000 0.000000 0.000000 
0.953745 27.608120 -0.646377 0.000000 0.000000 0.000000 -4.063724 -45.605323 0.497534 -35.939711 3.610110 27.505203 63.625213 -13.925201 1.705283 -25.421653 -2.463086 -18.137940 -1.594222 0.000011 0.000003 0.000000 0.000000 0.000000 -4.063724 -45.605323 0.497534 -15.824556 -7.887306 -38.720793 64.805900 3.571297 -4.357735 -37.733841 -14.852248 26.112237 -1.421664 -0.000022 -0.000002 0.000000 0.000000 0.000000 -4.063724 -45.605323 0.497534 8.838853 6.873018 -2.300835 1.863548 0.958218 -1.094343 0.000000 0.000000 0.000000 0.000000 0.000000 0.000000 1.878253 0.948836 -1.077120 -1.022868 14.018716 4.028358 3.556163 23.284578 -2.214762 0.000000 0.000000 0.000000 1.878253 0.948836 -1.077120 0.511949 2.340399 -3.392099 0.000000 0.000000 0.000000 -50.648185 6.283251 -48.819505 180.000005 -68.268205 -179.999991 0.000000 0.000000 0.000000 1.878253 0.948836 -1.077120 2.639995 11.492026 -4.490693 0.000000 0.000000 0.000000 -53.050817 35.590265 80.947154 179.999950 74.978566 -179.999991 0.000000 0.000000 0.000000 
1.010098 27.762085 -0.441200 0.000000 0.000000 0.000000 -3.638094 -48.559507 0.862820 -33.587971 6.075887 28.532593 62.660354 -14.263454 0.909940 -26.999355 -1.282016 -17.374599 -1.594223 0.000010 0.000003 0.000000 0.000000 0.000000 -3.638094 -48.559507 0.862820 -18.213990 -5.390656 -38.868452 64.605585 4.454426 -4.515018 -36.077664 -13.826116 25.677843 -1.421660 -0.000022 -0.000001 0.000000 0.000000 0.000000 -3.638094 -48.559507 0.862820 8.529297 7.393765 -2.542358 1.723159 1.157226 -1.149284 0.000000 0.000000 0.000000 0.000000 0.000000 0.000000 1.734677 1.147992 -1.132964 -1.501761 14.315646 3.851289 2.019822 24.423783 -1.787590 0.000000 0.000000 0.000000 1.734677 1.147992 -1.132964 0.377426 2.392706 -2.191030 0.000000 0.000000 0.000000 -49.753140 7.092132 -47.553177 179.999978 -66.469086 179.999991 0.000000 0.000000 0.000000 1.734677 1.147992 -1.132964 2.536066 11.010424 -4.345458 0.000000 0.000000 0.000000 -54.235985 37.996387 80.791958 179.999937 75.511553 -179.999991 0.000000 0.000000 0.000000 
1.096266 27.944908 -0.192299 0.000000 0.000000 0.000000 -2.451538 -53.166739 1.717025 -30.416649 9.541608 29.846345 61.167582 -14.745904 -0.177269 -29.258225 0.833132 -16.494014 -1.594222 0.000011 0.000005 0.000000 0.000000 0.000000 -2.451538 -53.166739 1.717025 -22.740565 -1.936984 -38.031405 64.552015 5.674327 -5.791895 -33.373086 -12.470989 25.268107 -1.421662 -0.000021 -0.000001 0.000000 0.000000 0.000000 -2.451538 -53.166739 1.717025 7.956475 8.253857 -2.777661 1.492039 1.476188 -1.218452 0.000000 0.000000 0.000000 0.000000 0.000000 0.000000 1.499632 1.466412 -1.201850 -2.301725 14.671060 3.827689 0.603028 26.230455 -2.159940 0.000000 0.000000 0.000000 1.499632 1.466412 -1.201850 0.173067 3.039245 -0.844182 0.000000 0.000000 0.000000 -49.092032 6.962157 -44.601405 179.999991 -67.374980 179.999978 0.000000 0.000000 0.000000 1.499632 1.466412 -1.201850 2.392609 10.277364 -4.323753 0.000000 0.000000 0.000000 -56.028294 40.818334 81.349793 179.999909 76.278569 -179.999964 0.000000 0.000000 0.000000 
1.195299 28.100349 0.048387 0.000000 0.000000 0.000000 -0.587014 -58.057250 2.873552 -27.184899 12.438120 30.774886 59.690860 -15.277146 -1.323160 -31.706220 3.852015 -15.627749 -1.594224 0.000013 0.000003 0.000000 0.000000 0.000000 -0.587014 -58.057250 2.873552 -28.120596 0.719725 -35.931692 64.089161 7.575347 -7.910254 -30.035586 -11.482196 24.648391 -1.421663 -0.000021 -0.000001 0.000000 0.000000 0.000000 -0.587014 -58.057250 2.873552 7.240047 8.552537 -2.737544 1.243022 1.559125 -1.269403 0.000000 0.000000 0.000000 0.000000 0.000000 0.000000 1.253379 1.547075 -1.250005 -3.329425 15.130600 3.838443 -0.489757 28.792891 -3.531862 0.000000 0.000000 0.000000 1.253379 1.547075 -1.250005 -0.147703 4.417813 0.976182 0.000000 0.000000 0.000000 -52.038539 3.649932 -38.886968 -180.000005 -75.537651 -179.999991 0.000000 0.000000 0.000000 1.253379 1.547075 -1.250005 2.216895 9.379413 -4.261223 0.000000 0.000000 0.000000 -58.586016 44.253697 82.093847 179.999978 77.091812 179.999978 0.000000 0.000000 0.000000 
1.283330 28.226109 0.249955 0.000000 0.000000 0.000000 0.461645 -60.904585 3.166518 -24.773692 13.179507 30.589607 59.039841 -15.598846 -1.804424 -33.537335 6.860519 -14.879075 -1.594222 0.000008 0.000003 0.000000 0.000000 0.000000 0.461645 -60.904585 3.166518 -31.340402 0.775784 -34.149327 62.832536 9.278291 -9.873342 -27.389883 -10.850597 24.243611 -1.421662 -0.000022 -0.000002 0.000000 0.000000 0.000000 0.461645 -60.904585 3.166518 6.768246 7.523628 -2.140184 1.133747 1.118257 -1.213907 0.000000 0.000000 0.000000 0.000000 0.000000 0.000000 1.157089 1.102528 -1.190409 -4.105025 15.601214 3.839516 -0.452946 31.309823 -5.558793 0.000000 0.000000 0.000000 1.157089 1.102528 -1.190409 -0.451966 5.530817 3.072891 0.000000 0.000000 0.000000 -54.906214 -3.419239 -30.352678 -0.000099 -86.149333 -0.000105 0.000000 0.000000 0.000000 1.157089 1.102528 -1.190409 2.045734 8.554601 -3.908719 0.000000 0.000000 0.000000 -60.791443 47.753507 81.586746 179.999937 77.393529 180.000005 0.000000 0.000000 0.000000 
